<svg width="25" height="25" viewBox="0 0 25 25" fill="none" xmlns="http://www.w3.org/2000/svg">
<path d="M9.00586 10.5C9.00586 8.70507 10.4609 7.25 12.2559 7.25C14.0508 7.25 15.5059 8.70507 15.5059 10.5C15.5059 12.2949 14.0508 13.75 12.2559 13.75C10.4609 13.75 9.00586 12.2949 9.00586 10.5Z" fill="#203239"/>
<path fill-rule="evenodd" clip-rule="evenodd" d="M4.0294 9.37739C4.37304 5.20845 7.85683 2 12.0399 2H12.4719C16.6549 2 20.1387 5.20845 20.4824 9.37739C20.6674 11.622 19.974 13.8508 18.5484 15.5943L13.7553 21.4561C12.9804 22.4039 11.5314 22.4039 10.7564 21.4561L5.96338 15.5943C4.53773 13.8508 3.84438 11.622 4.0294 9.37739ZM12.2559 5.75C9.63251 5.75 7.50586 7.87665 7.50586 10.5C7.50586 13.1234 9.63251 15.25 12.2559 15.25C14.8792 15.25 17.0059 13.1234 17.0059 10.5C17.0059 7.87665 14.8792 5.75 12.2559 5.75Z" fill="#203239"/>
</svg>
